<svg width="90" height="90" viewBox="0 0 90 90" fill="none" xmlns="http://www.w3.org/2000/svg">
<g clip-path="url(#clip0_68_100)">
<path d="M68.9062 0H21.0938C9.44399 0 0 9.44399 0 21.0938V68.9062C0 80.556 9.44399 90 21.0938 90H68.9062C80.556 90 90 80.556 90 68.9062V21.0938C90 9.44399 80.556 0 68.9062 0Z" fill="#5865F2"/>
<mask id="mask0_68_100" style="mask-type:luminance" maskUnits="userSpaceOnUse" x="9" y="17" width="72" height="56">
<path d="M9.84375 17.9297H80.1562V72.3973H9.84375V17.9297Z" fill="white"/>
</mask>
<g mask="url(#mask0_68_100)">
<path d="M69.3661 22.7802C64.8076 20.6876 59.9969 19.1955 55.0544 18.341C55.0094 18.3327 54.9631 18.3388 54.9218 18.3583C54.8805 18.3779 54.8464 18.41 54.8244 18.45C54.2064 19.549 53.5216 20.9834 53.0424 22.1105C47.6378 21.3012 42.2614 21.3012 36.9679 22.1105C36.4883 20.9581 35.7789 19.549 35.158 18.45C35.1351 18.4108 35.1008 18.3794 35.0597 18.36C35.0186 18.3406 34.9727 18.3339 34.9278 18.341C29.9848 19.1937 25.1739 20.686 20.616 22.7802C20.577 22.7968 20.5441 22.825 20.5218 22.8611C11.4065 36.4792 8.90968 49.7626 10.1345 62.8815C10.1379 62.9137 10.1478 62.9448 10.1635 62.9731C10.1792 63.0014 10.2004 63.0262 10.2259 63.0461C16.2398 67.4627 22.0655 70.1441 27.783 71.9213C27.8274 71.9345 27.8749 71.9339 27.919 71.9194C27.9631 71.905 28.0018 71.8774 28.0298 71.8404C29.3822 69.9933 30.5877 68.046 31.6217 65.9981C31.6359 65.9701 31.644 65.9393 31.6455 65.9079C31.647 65.8765 31.6418 65.8451 31.6303 65.8159C31.6188 65.7866 31.6012 65.7601 31.5786 65.7381C31.5561 65.7162 31.5292 65.6992 31.4997 65.6884C29.5872 64.9628 27.7664 64.0786 26.015 63.0742C25.9831 63.0554 25.9563 63.0291 25.937 62.9975C25.9176 62.9659 25.9064 62.93 25.9042 62.8931C25.902 62.8561 25.9089 62.8192 25.9244 62.7855C25.9399 62.7519 25.9633 62.7226 25.9928 62.7001C26.3623 62.4239 26.7254 62.1393 27.0819 61.8465C27.1132 61.8207 27.151 61.8042 27.1911 61.7987C27.2312 61.7932 27.2721 61.7991 27.3091 61.8156C38.8164 67.0693 51.274 67.0693 62.6453 61.8156C62.6824 61.798 62.7238 61.7913 62.7645 61.7963C62.8053 61.8013 62.8438 61.8177 62.8756 61.8437C63.2324 62.1382 63.5965 62.4237 63.9675 62.7001C63.9971 62.7223 64.0208 62.7515 64.0365 62.785C64.0522 62.8185 64.0594 62.8554 64.0575 62.8923C64.0556 62.9293 64.0446 62.9652 64.0255 62.9969C64.0065 63.0286 63.9799 63.0552 63.9482 63.0742C62.1957 64.0974 60.36 64.971 58.4607 65.6856C58.4312 65.6969 58.4044 65.7142 58.3821 65.7366C58.3597 65.7589 58.3424 65.7857 58.3311 65.8152C58.3199 65.8447 58.315 65.8763 58.3168 65.9078C58.3186 65.9393 58.327 65.9701 58.3415 65.9981C59.3933 68.0297 60.5928 69.9815 61.9302 71.8376C61.9575 71.8756 61.9959 71.9041 62.0402 71.9191C62.0844 71.9341 62.1323 71.9349 62.177 71.9213C67.9223 70.1441 73.748 67.4627 79.7622 63.0461C79.788 63.0271 79.8094 63.0029 79.8252 62.975C79.8409 62.9471 79.8506 62.9162 79.8536 62.8844C81.3196 47.7176 77.3979 34.5428 69.4575 22.8639C69.4381 22.8259 69.4056 22.7962 69.3661 22.7802ZM33.3401 54.8937C29.8755 54.8937 27.0208 51.7131 27.0208 47.8069C27.0208 43.9007 29.8203 40.7201 33.3401 40.7201C36.8874 40.7201 39.7143 43.9288 39.6587 47.8069C39.6587 51.7131 36.86 54.8937 33.3401 54.8937ZM56.7035 54.8937C53.2389 54.8937 50.3846 51.7131 50.3846 47.8069C50.3846 43.9007 53.1837 40.7201 56.7035 40.7201C60.2508 40.7201 63.0777 43.9288 63.0225 47.8069C63.0225 51.7131 60.2508 54.8937 56.7035 54.8937Z" fill="white"/>
</g>
</g>
<defs>
<clipPath id="clip0_68_100">
<rect width="90" height="90" fill="white"/>
</clipPath>
</defs>
</svg>
