<svg width="90" height="90" viewBox="0 0 90 90" fill="none" xmlns="http://www.w3.org/2000/svg">
<rect width="90" height="90" rx="25" fill="white"/>
<g clip-path="url(#clip0_59_99)">
<path d="M27.6556 68.7637V44.1644L20.0352 37.185L13.2018 33.3119V64.4226C13.2018 66.8246 15.1457 68.7637 17.538 68.7637H27.6556Z" fill="#4285F4"/>
<path d="M62.3444 68.7637H72.4619C74.8614 68.7637 76.7981 66.8174 76.7981 64.4226V33.3121L69.0583 37.7483L62.3444 44.1644V68.7637Z" fill="#34A853"/>
<path d="M27.6556 44.1644L26.6187 34.5527L27.6556 25.3533L45 38.3765L62.3444 25.3533L63.5043 34.056L62.3444 44.1644L45 57.1875L27.6556 44.1644Z" fill="#EA4335"/>
<path d="M62.3444 25.3534V44.1644L76.7981 33.3119V27.5238C76.7981 22.1555 70.677 19.0952 66.3917 22.3147L62.3444 25.3534Z" fill="#FBBC04"/>
<path d="M13.2018 33.3119L19.8493 38.3034L27.6556 44.1644V25.3534L23.6082 22.3147C19.3155 19.095 13.2018 22.1555 13.2018 27.5236V33.3117V33.3119Z" fill="#C5221F"/>
</g>
<defs>
<clipPath id="clip0_59_99">
<rect width="63.6" height="48" fill="white" transform="translate(13.2 21)"/>
</clipPath>
</defs>
</svg>
