<svg width="90" height="90" viewBox="0 0 90 90" fill="none" xmlns="http://www.w3.org/2000/svg">
<g clip-path="url(#clip0_68_95)">
<path d="M68.9062 0H21.0938C9.44399 0 0 9.44399 0 21.0938V68.9062C0 80.556 9.44399 90 21.0938 90H68.9062C80.556 90 90 80.556 90 68.9062V21.0938C90 9.44399 80.556 0 68.9062 0Z" fill="url(#paint0_radial_68_95)"/>
<path d="M68.9062 0H21.0938C9.44399 0 0 9.44399 0 21.0938V68.9062C0 80.556 9.44399 90 21.0938 90H68.9062C80.556 90 90 80.556 90 68.9062V21.0938C90 9.44399 80.556 0 68.9062 0Z" fill="url(#paint1_radial_68_95)"/>
<path d="M45.0032 9.84375C35.4554 9.84375 34.257 9.88559 30.5072 10.0561C26.7645 10.2277 24.2096 10.82 21.9744 11.6895C19.6618 12.5873 17.7005 13.7886 15.7465 15.7433C13.7907 17.6977 12.5895 19.659 11.6888 21.9705C10.8169 24.2065 10.2238 26.7623 10.0554 30.5033C9.8877 34.2534 9.84375 35.4523 9.84375 45.0004C9.84375 54.5484 9.88594 55.743 10.0561 59.4928C10.2284 63.2355 10.8207 65.7903 11.6895 68.0256C12.588 70.3382 13.7893 72.2995 15.744 74.2535C17.6977 76.2093 19.659 77.4134 21.9698 78.3112C24.2068 79.1807 26.762 79.773 30.504 79.9446C34.2541 80.1151 35.4516 80.157 44.9989 80.157C54.5477 80.157 55.7423 80.1151 59.4921 79.9446C63.2348 79.773 65.7925 79.1807 68.0295 78.3112C70.341 77.4134 72.2995 76.2093 74.2528 74.2535C76.2086 72.2995 77.4095 70.3382 78.3105 68.0266C79.1747 65.7904 79.7681 63.2348 79.9439 59.4935C80.1123 55.7437 80.1562 54.5484 80.1562 45.0004C80.1562 35.4523 80.1123 34.2541 79.9439 30.504C79.7681 26.7613 79.1747 24.2068 78.3105 21.9716C77.4095 19.659 76.2086 17.6977 74.2528 15.7433C72.2974 13.7879 70.3417 12.5866 68.0273 11.6898C65.7861 10.82 63.2299 10.2273 59.4872 10.0561C55.7371 9.88559 54.5432 9.84375 44.9923 9.84375H45.0032ZM41.8493 16.1793C42.7855 16.1779 43.83 16.1793 45.0032 16.1793C54.3902 16.1793 55.5026 16.213 59.2095 16.3814C62.6372 16.5382 64.4977 17.1109 65.7369 17.5922C67.3777 18.2292 68.5473 18.9911 69.7771 20.2219C71.0075 21.4523 71.769 22.6241 72.4078 24.2648C72.8891 25.5023 73.4625 27.3628 73.6186 30.7905C73.787 34.4967 73.8236 35.6098 73.8236 44.9923C73.8236 54.3748 73.787 55.4882 73.6186 59.194C73.4618 62.6217 72.8891 64.4822 72.4078 65.72C71.7708 67.3608 71.0075 68.529 69.7771 69.7588C68.5466 70.9893 67.3784 71.7507 65.7369 72.3881C64.4991 72.8715 62.6372 73.4428 59.2095 73.5996C55.5033 73.768 54.3902 73.8046 45.0032 73.8046C35.6157 73.8046 34.503 73.768 30.7972 73.5996C27.3695 73.4414 25.509 72.8687 24.2687 72.3874C22.6283 71.75 21.4562 70.9886 20.2257 69.7581C18.9953 68.5276 18.2338 67.3587 17.595 65.7172C17.1137 64.4794 16.5403 62.6189 16.3842 59.1912C16.2158 55.485 16.1821 54.372 16.1821 44.9835C16.1821 35.5954 16.2158 34.4879 16.3842 30.7818C16.541 27.354 17.1137 25.4936 17.595 24.2543C18.2324 22.6136 18.9953 21.4418 20.2261 20.2113C21.4566 18.9809 22.6283 18.219 24.2691 17.5806C25.5083 17.0972 27.3695 16.5259 30.7972 16.3684C34.0404 16.2218 35.2972 16.1779 41.8493 16.1705V16.1793ZM63.7696 22.0166C61.4405 22.0166 59.5508 23.9045 59.5508 26.2339C59.5508 28.563 61.4405 30.4527 63.7696 30.4527C66.0987 30.4527 67.9883 28.563 67.9883 26.2339C67.9883 23.9048 66.0987 22.0152 63.7696 22.0152V22.0166ZM45.0032 26.9459C35.0329 26.9459 26.949 35.0297 26.949 45.0004C26.949 54.971 35.0329 63.051 45.0032 63.051C54.9738 63.051 63.0548 54.971 63.0548 45.0004C63.0548 35.03 54.9731 26.9459 45.0025 26.9459H45.0032ZM45.0032 33.2814C51.4751 33.2814 56.7221 38.5277 56.7221 45.0004C56.7221 51.4723 51.4751 56.7193 45.0032 56.7193C38.5309 56.7193 33.2845 51.4723 33.2845 45.0004C33.2845 38.5277 38.5309 33.2814 45.0032 33.2814Z" fill="white"/>
</g>
<defs>
<radialGradient id="paint0_radial_68_95" cx="0" cy="0" r="1" gradientUnits="userSpaceOnUse" gradientTransform="translate(23.9062 96.9318) rotate(-90) scale(89.1967 82.96)">
<stop stop-color="#FFDD55"/>
<stop offset="0.1" stop-color="#FFDD55"/>
<stop offset="0.5" stop-color="#FF543E"/>
<stop offset="1" stop-color="#C837AB"/>
</radialGradient>
<radialGradient id="paint1_radial_68_95" cx="0" cy="0" r="1" gradientUnits="userSpaceOnUse" gradientTransform="translate(-15.0754 6.48316) rotate(78.681) scale(39.8714 164.351)">
<stop stop-color="#3771C8"/>
<stop offset="0.128" stop-color="#3771C8"/>
<stop offset="1" stop-color="#6600FF" stop-opacity="0"/>
</radialGradient>
<clipPath id="clip0_68_95">
<rect width="90" height="90" fill="white"/>
</clipPath>
</defs>
</svg>
