<svg width="90" height="90" viewBox="0 0 90 90" fill="none" xmlns="http://www.w3.org/2000/svg">
<g clip-path="url(#clip0_68_92)">
<path d="M45 0C33.068 0 21.6141 4.74398 13.1836 13.1801C4.74443 21.6195 0.00233768 33.065 0 45C0 56.9299 4.74609 68.3838 13.1836 76.8199C21.6141 85.256 33.068 90 45 90C56.932 90 68.3859 85.256 76.8164 76.8199C85.2539 68.3838 90 56.9299 90 45C90 33.0701 85.2539 21.6162 76.8164 13.1801C68.3859 4.74398 56.932 0 45 0Z" fill="url(#paint0_linear_68_92)"/>
<path d="M20.3695 44.5247C33.4898 38.8097 42.2367 35.0416 46.6102 33.2212C59.1117 28.023 61.7063 27.1202 63.4008 27.0896C63.7734 27.0836 64.6031 27.1758 65.1445 27.6134C65.5945 27.9826 65.7211 28.4818 65.7844 28.8323C65.8406 29.1825 65.918 29.9805 65.8547 30.6035C65.1797 37.7191 62.2477 54.9865 60.757 62.9564C60.1313 66.3286 58.8867 67.4592 57.6844 67.5696C55.0688 67.81 53.0859 65.8427 50.5547 64.184C46.5961 61.5874 44.3602 59.9716 40.5141 57.4383C36.0703 54.5104 38.9531 52.901 41.4844 50.2713C42.1453 49.5829 53.6625 39.1099 53.8805 38.16C53.9086 38.0411 53.9367 37.5982 53.6695 37.3647C53.4094 37.1306 53.0227 37.2108 52.7414 37.274C52.3406 37.364 46.0195 41.5462 33.757 49.8199C31.9641 51.0532 30.3398 51.6543 28.8773 51.6227C27.2742 51.5883 24.1805 50.7143 21.8813 49.9676C19.0688 49.0514 16.8258 48.5669 17.0227 47.0109C17.1211 46.2009 18.2391 45.3719 20.3695 44.5247Z" fill="white"/>
</g>
<defs>
<linearGradient id="paint0_linear_68_92" x1="4500" y1="0" x2="4500" y2="9000" gradientUnits="userSpaceOnUse">
<stop stop-color="#2AABEE"/>
<stop offset="1" stop-color="#229ED9"/>
</linearGradient>
<clipPath id="clip0_68_92">
<rect width="90" height="90" fill="white"/>
</clipPath>
</defs>
</svg>
